G04*
G04 #@! TF.GenerationSoftware,Altium Limited,Altium Designer,24.2.2 (26)*
G04*
G04 Layer_Physical_Order=1*
G04 Layer_Color=255*
%FSLAX44Y44*%
%MOMM*%
G71*
G04*
G04 #@! TF.SameCoordinates,0453291D-A58D-48AD-B3C1-039DEE30D3E0*
G04*
G04*
G04 #@! TF.FilePolarity,Positive*
G04*
G01*
G75*
%ADD15C,0.3000*%
%ADD16C,1.5240*%
%ADD17C,3.2000*%
%ADD18C,0.4000*%
D15*
X793080Y478270D02*
G03*
X910175Y362266I117000J1000D01*
G01*
X1261080Y955270D02*
G03*
X793080Y955270I-234000J0D01*
G01*
X1255080D02*
G03*
X799080Y955270I-228000J0D01*
G01*
X1249080D02*
G03*
X805080Y955270I-222000J0D01*
G01*
X1243080D02*
G03*
X811080Y955270I-216000J0D01*
G01*
X1237080D02*
G03*
X817080Y955270I-210000J0D01*
G01*
X1231080D02*
G03*
X823080Y955270I-204000J0D01*
G01*
X1219080D02*
G03*
X835080Y955270I-192000J0D01*
G01*
X1213080D02*
G03*
X841080Y955270I-186000J0D01*
G01*
X1207080D02*
G03*
X847080Y955270I-180000J0D01*
G01*
X1201080D02*
G03*
X853080Y955270I-174000J0D01*
G01*
X1195080D02*
G03*
X859080Y955270I-168000J0D01*
G01*
X1189080D02*
G03*
X865080Y955270I-162000J0D01*
G01*
X1183080D02*
G03*
X871080Y955270I-156000J0D01*
G01*
X1177080D02*
G03*
X877080Y955270I-150000J0D01*
G01*
X1171080D02*
G03*
X883080Y955270I-144000J0D01*
G01*
X1165080D02*
G03*
X889080Y955270I-138000J0D01*
G01*
X1141080D02*
G03*
X913080Y955270I-114000J0D01*
G01*
X1135080D02*
G03*
X919080Y955270I-108000J0D01*
G01*
X1129080D02*
G03*
X925080Y955270I-102000J0D01*
G01*
X1123080D02*
G03*
X931080Y955270I-96000J0D01*
G01*
X1117080D02*
G03*
X937080Y955270I-90000J0D01*
G01*
X1111080D02*
G03*
X943080Y955270I-84000J0D01*
G01*
X1105080D02*
G03*
X949080Y955270I-78000J0D01*
G01*
X1099080D02*
G03*
X955080Y955270I-72000J0D01*
G01*
X1093080D02*
G03*
X961080Y955270I-66000J0D01*
G01*
X1087080D02*
G03*
X967080Y955270I-60000J0D01*
G01*
X1081080D02*
G03*
X973080Y955270I-54000J0D01*
G01*
X1075080D02*
G03*
X979080Y955270I-48000J0D01*
G01*
X1069080D02*
G03*
X985080Y955270I-42000J0D01*
G01*
X1063080D02*
G03*
X991080Y955270I-36000J0D01*
G01*
X1057080D02*
G03*
X997080Y955270I-30000J0D01*
G01*
X1051080D02*
G03*
X1003080Y955270I-24000J0D01*
G01*
X1045080D02*
G03*
X1009080Y955270I-18000J0D01*
G01*
X1039080D02*
G03*
X1015080Y955270I-12000J0D01*
G01*
X1033080D02*
G03*
X1021080Y955270I-6000J0D01*
G01*
X1159080D02*
G03*
X895080Y955270I-132000J0D01*
G01*
X1057080Y478270D02*
G03*
X1237080Y478270I90000J0D01*
G01*
X1063080D02*
G03*
X1231080Y478270I84000J0D01*
G01*
X1069080D02*
G03*
X1225080Y478270I78000J0D01*
G01*
X1075080D02*
G03*
X1219080Y478270I72000J0D01*
G01*
X1081080D02*
G03*
X1213080Y478270I66000J0D01*
G01*
X1087080D02*
G03*
X1207080Y478270I60000J0D01*
G01*
X1093080D02*
G03*
X1201080Y478270I54000J0D01*
G01*
X1099080D02*
G03*
X1195080Y478270I48000J0D01*
G01*
X1105080D02*
G03*
X1189080Y478270I42000J0D01*
G01*
X1111080D02*
G03*
X1183080Y478270I36000J0D01*
G01*
X1117080D02*
G03*
X1177080Y478270I30000J0D01*
G01*
X1123080D02*
G03*
X1171080Y478270I24000J0D01*
G01*
X1129080D02*
G03*
X1165080Y478270I18000J0D01*
G01*
X1135080D02*
G03*
X1159080Y478270I12000J0D01*
G01*
X1141080D02*
G03*
X1153080Y478270I6000J0D01*
G01*
X1225080Y955270D02*
G03*
X829080Y955270I-198000J0D01*
G01*
X1153080D02*
G03*
X901080Y955270I-126000J0D01*
G01*
X805080Y478270D02*
G03*
X1015080Y478270I105000J1000D01*
G01*
X811080D02*
G03*
X1009080Y478270I99000J1000D01*
G01*
X817080D02*
G03*
X1003080Y478270I93000J1000D01*
G01*
X823080D02*
G03*
X997080Y478270I87000J1000D01*
G01*
X829080D02*
G03*
X991080Y478270I81000J1000D01*
G01*
X835080D02*
G03*
X985080Y478270I75000J1000D01*
G01*
X841080D02*
G03*
X979080Y478270I69000J1000D01*
G01*
X847080D02*
G03*
X973080Y478270I63000J1000D01*
G01*
X853080D02*
G03*
X967080Y478270I57000J1000D01*
G01*
X859080D02*
G03*
X961080Y478270I51000J1000D01*
G01*
X865080D02*
G03*
X955080Y478270I45000J1000D01*
G01*
X871080D02*
G03*
X949080Y478270I39000J1000D01*
G01*
X877080D02*
G03*
X943080Y478270I33000J1000D01*
G01*
X883080D02*
G03*
X937080Y478270I27000J1000D01*
G01*
X889080D02*
G03*
X931080Y478270I21000J1000D01*
G01*
X895080D02*
G03*
X925080Y478270I15000J1000D01*
G01*
X901080D02*
G03*
X919080Y478270I9000J1000D01*
G01*
X1033080D02*
G03*
X1261080Y478270I114000J0D01*
G01*
X799080D02*
G03*
X1021080Y478270I111000J1000D01*
G01*
X1039080D02*
G03*
X1255080Y478270I108000J0D01*
G01*
X1045080D02*
G03*
X1249080Y478270I102000J0D01*
G01*
X1051080D02*
G03*
X1243080Y478270I96000J0D01*
G01*
X955994Y362266D02*
X1009100Y309160D01*
X910175Y362266D02*
X955994D01*
X1135080Y478270D02*
Y955270D01*
X1189080Y478270D02*
Y955270D01*
X1033080Y478270D02*
Y955270D01*
X1111080Y478270D02*
Y955270D01*
X1165080Y478270D02*
Y955270D01*
X1015080Y478270D02*
Y955270D01*
X967080Y478270D02*
Y955270D01*
X1063080Y478270D02*
Y955270D01*
X1213080Y478270D02*
Y955270D01*
X961080Y478270D02*
Y955270D01*
X1057080Y478270D02*
Y955270D01*
X1081080Y478270D02*
Y955270D01*
X1237080Y478270D02*
Y955270D01*
X889080Y478270D02*
Y955270D01*
X1129080Y478270D02*
Y955270D01*
X805080Y478270D02*
Y955270D01*
X883080Y478270D02*
Y955270D01*
X817080Y478270D02*
Y955270D01*
X1207080Y478270D02*
Y955270D01*
X991080Y478270D02*
Y955270D01*
X865080Y478270D02*
Y955270D01*
X1123080Y478270D02*
Y955270D01*
X1177080Y478270D02*
Y955270D01*
X877080Y478270D02*
Y955270D01*
X1231080Y478270D02*
Y955270D01*
X1009080Y478270D02*
Y955270D01*
X829080Y478270D02*
Y955270D01*
X1099080Y478270D02*
Y955270D01*
X1249080Y478270D02*
Y955270D01*
X1003080Y478270D02*
Y955270D01*
X979080Y478270D02*
Y955270D01*
X1075080Y478270D02*
Y955270D01*
X1051080Y478270D02*
Y955270D01*
X1183080Y478270D02*
Y955270D01*
X1225080Y478270D02*
Y955270D01*
X1201080Y478270D02*
Y955270D01*
X841080Y478270D02*
Y955270D01*
X811080Y478270D02*
Y955270D01*
X913080Y478270D02*
Y955270D01*
X1087080Y478270D02*
Y955270D01*
X859080Y478270D02*
Y955270D01*
X1039080Y478270D02*
Y955270D01*
X949080Y478270D02*
Y955270D01*
X925080Y478270D02*
Y955270D01*
X1219080Y478270D02*
Y955270D01*
X823080Y478270D02*
Y955270D01*
X943080Y478270D02*
Y955270D01*
X853080Y478270D02*
Y955270D01*
X985080Y478270D02*
Y955270D01*
X871080Y478270D02*
Y955270D01*
X1117080Y478270D02*
Y955270D01*
X1195080Y478270D02*
Y955270D01*
X1105080Y478270D02*
Y955270D01*
X931080Y478270D02*
Y955270D01*
X835080Y478270D02*
Y955270D01*
X937080Y478270D02*
Y955270D01*
X1093080Y478270D02*
Y955270D01*
X1171080Y478270D02*
Y955270D01*
X1141080Y478270D02*
Y955270D01*
X955080Y478270D02*
Y955270D01*
X997080Y478270D02*
Y955270D01*
X1159080Y478270D02*
Y955270D01*
X1045080Y478270D02*
Y955270D01*
X1069080Y478270D02*
Y955270D01*
X973080Y478270D02*
Y955270D01*
X847080Y478270D02*
Y955270D01*
X1243080Y478270D02*
Y955270D01*
X1261080Y478270D02*
Y955270D01*
X799080Y478270D02*
Y955270D01*
X1255080Y478270D02*
Y955270D01*
X901080Y478270D02*
Y955270D01*
X895080Y478270D02*
Y955270D01*
X919080Y478270D02*
Y955270D01*
X1153080Y478270D02*
Y955270D01*
X1021080Y478270D02*
X1021080Y955270D01*
X793080Y478270D02*
X793080Y955270D01*
X1051181Y361440D02*
X1052950D01*
X1024080Y388270D02*
X1024351D01*
X1051181Y361440D01*
D16*
X1009100Y275700D02*
D03*
Y345700D02*
D03*
X1053100Y358700D02*
D03*
X1009100Y305700D02*
D03*
D17*
X1146027Y318092D02*
D03*
X1326080Y576270D02*
D03*
X1351080Y716270D02*
D03*
X1326027Y906025D02*
D03*
X725980D02*
D03*
X701027Y716270D02*
D03*
X726027Y576270D02*
D03*
X906027Y318092D02*
D03*
X906025Y1187800D02*
D03*
X1146027D02*
D03*
D18*
X913080Y478270D02*
D03*
X1024080Y388270D02*
D03*
M02*
