G04*
G04 #@! TF.GenerationSoftware,Altium Limited,Altium Designer,24.2.2 (26)*
G04*
G04 Layer_Color=128*
%FSLAX44Y44*%
%MOMM*%
G71*
G04*
G04 #@! TF.SameCoordinates,0453291D-A58D-48AD-B3C1-039DEE30D3E0*
G04*
G04*
G04 #@! TF.FilePolarity,Positive*
G04*
G01*
G75*
%ADD20C,0.1270*%
D20*
X1005100Y275700D02*
X1013100D01*
X1009100Y271700D02*
Y279700D01*
X1005100Y345700D02*
X1013100D01*
X1009100Y341700D02*
Y349700D01*
X1049100Y358700D02*
X1057100D01*
X1053100Y354700D02*
Y362700D01*
X1005100Y305700D02*
X1013100D01*
X1009100Y301700D02*
Y309700D01*
X1023600Y257700D02*
X1038600D01*
X1031100Y250200D02*
Y265200D01*
X1023600Y327700D02*
X1038600D01*
X1031100Y320200D02*
Y335200D01*
X1130027Y318092D02*
X1162027D01*
X1146027Y302092D02*
Y334092D01*
X1310080Y576270D02*
X1342080D01*
X1326080Y560270D02*
Y592270D01*
X1335080Y716270D02*
X1367080D01*
X1351080Y700270D02*
Y732270D01*
X1310027Y906025D02*
X1342027D01*
X1326027Y890025D02*
Y922025D01*
X709980Y906025D02*
X741980D01*
X725980Y890025D02*
Y922025D01*
X685027Y716270D02*
X717027D01*
X701027Y700270D02*
Y732270D01*
X710027Y576270D02*
X742027D01*
X726027Y560270D02*
Y592270D01*
X890027Y318092D02*
X922027D01*
X906027Y302092D02*
Y334092D01*
X890025Y1187800D02*
X922025D01*
X906025Y1171800D02*
Y1203800D01*
X1130027Y1187800D02*
X1162027D01*
X1146027Y1171800D02*
Y1203800D01*
X911580Y478270D02*
X914580D01*
X913080Y476770D02*
Y479770D01*
X1022580Y388270D02*
X1025580D01*
X1024080Y386770D02*
Y389770D01*
M02*
