G04*
G04 #@! TF.GenerationSoftware,Altium Limited,Altium Designer,24.2.2 (26)*
G04*
G04 Layer_Color=16711935*
%FSLAX44Y44*%
%MOMM*%
G71*
G04*
G04 #@! TF.SameCoordinates,0453291D-A58D-48AD-B3C1-039DEE30D3E0*
G04*
G04*
G04 #@! TF.FilePolarity,Positive*
G04*
G01*
G75*
%ADD19C,0.0127*%
%ADD20C,0.1270*%
D19*
X1261027Y956367D02*
G03*
X1028527Y1188867I-232500J0D01*
G01*
X1023527D02*
G03*
X791027Y956367I0J-232500D01*
G01*
X1146027Y361367D02*
G03*
X1261027Y476367I-0J115000D01*
G01*
X1031027D02*
G03*
X1146027Y361367I115000J-0D01*
G01*
X922027Y317698D02*
G03*
X922027Y317698I-16000J0D01*
G01*
X717027Y716382D02*
G03*
X717027Y716382I-16000J0D01*
G01*
X742027Y576177D02*
G03*
X742027Y576177I-16000J0D01*
G01*
X1162027Y317698D02*
G03*
X1162027Y317698I-16000J0D01*
G01*
X1342027Y576177D02*
G03*
X1342027Y576177I-16000J0D01*
G01*
X922025Y1187405D02*
G03*
X922025Y1187405I-16000J0D01*
G01*
X906027Y361367D02*
G03*
X1021027Y476367I-0J115000D01*
G01*
X791027D02*
G03*
X906027Y361367I115000J-0D01*
G01*
X1162027Y1187405D02*
G03*
X1162027Y1187405I-16000J0D01*
G01*
X1367027Y716382D02*
G03*
X1367027Y716382I-16000J0D01*
G01*
X1342027Y906025D02*
G03*
X1342027Y906025I-16000J0D01*
G01*
X742027D02*
G03*
X742027Y906025I-16000J0D01*
G01*
X1024331Y245875D02*
X1046938Y246782D01*
X1069464Y249660D01*
X1091818Y254495D01*
X1113913Y261270D01*
X1135662Y269957D01*
X1156977Y280523D01*
X1177777Y292925D01*
X1197977Y307114D01*
X1217499Y323036D01*
X1236266Y340625D01*
X1254203Y359815D01*
X1271240Y380527D01*
X1287310Y402682D01*
X1302348Y426191D01*
X1316296Y450962D01*
X1329099Y476897D01*
X1340706Y503893D01*
X1351071Y531844D01*
X1360154Y560639D01*
X1367918Y590166D01*
X1374333Y620308D01*
X1379373Y650944D01*
X1383020Y681956D01*
X1385258Y713220D01*
X1386078Y744612D01*
X1385477Y776010D02*
X1386078Y744612D01*
X1383458Y807288D02*
X1385477Y776010D01*
X1380029Y838325D02*
X1383458Y807288D01*
X1375203Y868996D02*
X1380029Y838325D01*
X1368999Y899181D02*
X1375203Y868996D01*
X1361441Y928762D02*
X1368999Y899181D01*
X1352561Y957620D02*
X1361441Y928762D01*
X1342391Y985643D02*
X1352561Y957620D01*
X1330974Y1012720D02*
X1342391Y985643D01*
X1318353Y1038744D02*
X1330974Y1012720D01*
X1304578Y1063611D02*
X1318353Y1038744D01*
X1289705Y1087225D02*
X1304578Y1063611D01*
X1273791Y1109492D02*
X1289705Y1087225D01*
X1256899Y1130323D02*
X1273791Y1109492D01*
X1239097Y1149638D02*
X1256899Y1130323D01*
X1220454Y1167358D02*
X1239097Y1149638D01*
X1201043Y1183416D02*
X1220454Y1167358D01*
X1180943Y1197746D02*
X1201043Y1183416D01*
X1160231Y1210294D02*
X1180943Y1197746D01*
X1138989Y1221008D02*
X1160231Y1210294D01*
X1117302Y1229847D02*
X1138989Y1221008D01*
X1095255Y1236776D02*
X1117302Y1229847D01*
X1072935Y1241768D02*
X1095255Y1236776D01*
X1050430Y1244803D02*
X1072935Y1241768D01*
X1027829Y1245869D02*
X1050430Y1244803D01*
X1005221Y1244961D02*
X1027829Y1245869D01*
X982696Y1242084D02*
X1005221Y1244961D01*
X960342Y1237249D02*
X982696Y1242084D01*
X938247Y1230474D02*
X960342Y1237249D01*
X916498Y1221786D02*
X938247Y1230474D01*
X895183Y1211221D02*
X916498Y1221786D01*
X874383Y1198819D02*
X895183Y1211221D01*
X854183Y1184629D02*
X874383Y1198819D01*
X834661Y1168708D02*
X854183Y1184629D01*
X815894Y1151118D02*
X834661Y1168708D01*
X797957Y1131929D02*
X815894Y1151118D01*
X780920Y1111216D02*
X797957Y1131929D01*
X764850Y1089062D02*
X780920Y1111216D01*
X749812Y1065552D02*
X764850Y1089062D01*
X735864Y1040782D02*
X749812Y1065552D01*
X723061Y1014847D02*
X735864Y1040782D01*
X711454Y987851D02*
X723061Y1014847D01*
X701089Y959900D02*
X711454Y987851D01*
X692007Y931104D02*
X701089Y959900D01*
X684242Y901577D02*
X692007Y931104D01*
X677827Y871436D02*
X684242Y901577D01*
X672787Y840799D02*
X677827Y871436D01*
X669140Y809788D02*
X672787Y840799D01*
X666902Y778524D02*
X669140Y809788D01*
X666082Y747131D02*
X666902Y778524D01*
X666082Y747131D02*
X666683Y715734D01*
X668702Y684455D01*
X672131Y653419D01*
X676957Y622748D01*
X683161Y592562D01*
X690719Y562982D01*
X699599Y534123D01*
X709769Y506100D01*
X721186Y479024D01*
X733807Y453000D01*
X747582Y428132D01*
X762455Y404519D01*
X778369Y382252D01*
X795261Y361420D01*
X813063Y342106D01*
X831706Y324385D01*
X851117Y308328D01*
X871217Y293997D01*
X891929Y281450D01*
X913171Y270736D01*
X934858Y261896D01*
X956905Y254967D01*
X979225Y249975D01*
X1001730Y246941D01*
X1024331Y245875D01*
X761027Y956367D02*
X1291027D01*
Y476367D02*
Y956367D01*
X761027Y476367D02*
X1291027D01*
X761027D02*
Y956367D01*
X791027D02*
X901027D01*
Y476367D02*
Y956367D01*
X791027Y476367D02*
X901027D01*
X791027D02*
Y956367D01*
X911027D02*
X1021027D01*
Y476367D02*
Y956367D01*
X911027Y476367D02*
X1021027D01*
X911027D02*
Y956367D01*
X1031027D02*
X1141027D01*
Y476367D02*
Y956367D01*
X1031027Y476367D02*
X1141027D01*
X1031027D02*
Y956367D01*
X1151027D02*
X1261027D01*
Y476367D02*
Y956367D01*
X1151027Y476367D02*
X1261027D01*
X1151027D02*
Y956367D01*
X791027D02*
X1261027D01*
X791027Y476367D02*
X1021027D01*
X1031027D02*
X1261027D01*
X1000080Y367247D02*
X1062080D01*
Y245247D02*
Y367247D01*
X1000080Y245247D02*
X1062080D01*
X1000080D02*
Y367247D01*
X1151080Y476270D02*
Y956270D01*
X1023527Y1188867D02*
X1028527D01*
D20*
X1061100Y242700D02*
Y363700D01*
X1001103D02*
X1061100D01*
X1001103Y242700D02*
Y363700D01*
X1006100Y222700D02*
Y242700D01*
X1001103D02*
X1061100D01*
X1056100Y222700D02*
Y242700D01*
X1006100Y222700D02*
X1056100D01*
M02*
