G04*
G04 #@! TF.GenerationSoftware,Altium Limited,Altium Designer,24.2.2 (26)*
G04*
G04 Layer_Color=16711935*
%FSLAX44Y44*%
%MOMM*%
G71*
G04*
G04 #@! TF.SameCoordinates,0F374588-2137-43C4-A123-4C8396255DE2*
G04*
G04*
G04 #@! TF.FilePolarity,Positive*
G04*
G01*
G75*
%ADD19C,0.0127*%
%ADD20C,0.1270*%
D19*
X410947Y889755D02*
G03*
X410947Y889755I-16000J0D01*
G01*
X1010947D02*
G03*
X1010947Y889755I-16000J0D01*
G01*
X1035947Y700112D02*
G03*
X1035947Y700112I-16000J0D01*
G01*
X830947Y1171135D02*
G03*
X830947Y1171135I-16000J0D01*
G01*
X459947Y460097D02*
G03*
X574947Y345097I115000J-0D01*
G01*
D02*
G03*
X689947Y460097I-0J115000D01*
G01*
X590945Y1171135D02*
G03*
X590945Y1171135I-16000J0D01*
G01*
X1010947Y559907D02*
G03*
X1010947Y559907I-16000J0D01*
G01*
X830947Y301428D02*
G03*
X830947Y301428I-16000J0D01*
G01*
X410947Y559907D02*
G03*
X410947Y559907I-16000J0D01*
G01*
X385947Y700112D02*
G03*
X385947Y700112I-16000J0D01*
G01*
X590947Y301428D02*
G03*
X590947Y301428I-16000J0D01*
G01*
X699947Y460097D02*
G03*
X814947Y345097I115000J-0D01*
G01*
D02*
G03*
X929947Y460097I-0J115000D01*
G01*
X692447Y1172597D02*
G03*
X459947Y940097I0J-232500D01*
G01*
X929947D02*
G03*
X697447Y1172597I-232500J0D01*
G01*
X692447Y1172597D02*
X697447D01*
X820000Y460000D02*
Y940000D01*
X669000Y228977D02*
Y350977D01*
Y228977D02*
X731000D01*
Y350977D01*
X669000D02*
X731000D01*
X699947Y460097D02*
X929947D01*
X459947D02*
X689947D01*
X459947Y940097D02*
X929947D01*
X819947Y460097D02*
Y940097D01*
Y460097D02*
X929947D01*
Y940097D01*
X819947D02*
X929947D01*
X699947Y460097D02*
Y940097D01*
Y460097D02*
X809947D01*
Y940097D01*
X699947D02*
X809947D01*
X579947Y460097D02*
Y940097D01*
Y460097D02*
X689947D01*
Y940097D01*
X579947D02*
X689947D01*
X459947Y460097D02*
Y940097D01*
Y460097D02*
X569947D01*
Y940097D01*
X459947D02*
X569947D01*
X429947Y460097D02*
Y940097D01*
Y460097D02*
X959947D01*
Y940097D01*
X429947D02*
X959947D01*
X670650Y230671D02*
X693251Y229605D01*
X648145Y233705D02*
X670650Y230671D01*
X625825Y238697D02*
X648145Y233705D01*
X603778Y245627D02*
X625825Y238697D01*
X582091Y254466D02*
X603778Y245627D01*
X560849Y265180D02*
X582091Y254466D01*
X540137Y277727D02*
X560849Y265180D01*
X520037Y292058D02*
X540137Y277727D01*
X500626Y308115D02*
X520037Y292058D01*
X481983Y325836D02*
X500626Y308115D01*
X464181Y345150D02*
X481983Y325836D01*
X447289Y365982D02*
X464181Y345150D01*
X431375Y388249D02*
X447289Y365982D01*
X416502Y411862D02*
X431375Y388249D01*
X402727Y436730D02*
X416502Y411862D01*
X390106Y462754D02*
X402727Y436730D01*
X378689Y489830D02*
X390106Y462754D01*
X368519Y517853D02*
X378689Y489830D01*
X359638Y546712D02*
X368519Y517853D01*
X352081Y576292D02*
X359638Y546712D01*
X345877Y606478D02*
X352081Y576292D01*
X341051Y637149D02*
X345877Y606478D01*
X337622Y668185D02*
X341051Y637149D01*
X335603Y699464D02*
X337622Y668185D01*
X335002Y730861D02*
X335603Y699464D01*
X335002Y730861D02*
X335822Y762254D01*
X338060Y793518D01*
X341707Y824529D01*
X346747Y855166D01*
X353162Y885307D01*
X360927Y914834D01*
X370009Y943630D01*
X380374Y971581D01*
X391981Y998577D01*
X404784Y1024512D01*
X418732Y1049282D01*
X433770Y1072792D01*
X449840Y1094946D01*
X466877Y1115659D01*
X484814Y1134848D01*
X503581Y1152438D01*
X523103Y1168359D01*
X543303Y1182549D01*
X564103Y1194951D01*
X585418Y1205516D01*
X607167Y1214204D01*
X629262Y1220978D01*
X651616Y1225814D01*
X674141Y1228691D01*
X696749Y1229599D01*
X719350Y1228533D01*
X741855Y1225498D01*
X764175Y1220506D01*
X786222Y1213577D01*
X807909Y1204738D01*
X829151Y1194024D01*
X849863Y1181476D01*
X869963Y1167146D01*
X889374Y1151088D01*
X908017Y1133367D01*
X925819Y1114053D01*
X942711Y1093222D01*
X958625Y1070955D01*
X973498Y1047341D01*
X987273Y1022474D01*
X999894Y996450D01*
X1011311Y969373D01*
X1021481Y941350D01*
X1030361Y912492D01*
X1037919Y882911D01*
X1044123Y852726D01*
X1048949Y822055D01*
X1052378Y791018D01*
X1054397Y759740D01*
X1054998Y728342D01*
X1054178Y696950D02*
X1054998Y728342D01*
X1051940Y665686D02*
X1054178Y696950D01*
X1048293Y634674D02*
X1051940Y665686D01*
X1043253Y604038D02*
X1048293Y634674D01*
X1036838Y573896D02*
X1043253Y604038D01*
X1029073Y544370D02*
X1036838Y573896D01*
X1019991Y515574D02*
X1029073Y544370D01*
X1009626Y487623D02*
X1019991Y515574D01*
X998019Y460627D02*
X1009626Y487623D01*
X985216Y434692D02*
X998019Y460627D01*
X971268Y409921D02*
X985216Y434692D01*
X956229Y386412D02*
X971268Y409921D01*
X940160Y364258D02*
X956229Y386412D01*
X923123Y343545D02*
X940160Y364258D01*
X905186Y324355D02*
X923123Y343545D01*
X886419Y306765D02*
X905186Y324355D01*
X866897Y290844D02*
X886419Y306765D01*
X846697Y276655D02*
X866897Y290844D01*
X825897Y264253D02*
X846697Y276655D01*
X804582Y253687D02*
X825897Y264253D01*
X782833Y245000D02*
X804582Y253687D01*
X760738Y238225D02*
X782833Y245000D01*
X738384Y233390D02*
X760738Y238225D01*
X715859Y230512D02*
X738384Y233390D01*
X693251Y229605D02*
X715859Y230512D01*
D20*
X730230Y226410D02*
Y347410D01*
X670233D02*
X730230D01*
X670233Y226410D02*
Y347410D01*
X675230Y206410D02*
Y226410D01*
X670233D02*
X730230D01*
X725230Y206410D02*
Y226410D01*
X675230Y206410D02*
X725230D01*
M02*
