G04*
G04 #@! TF.GenerationSoftware,Altium Limited,Altium Designer,24.2.2 (26)*
G04*
G04 Layer_Color=2752767*
%FSLAX44Y44*%
%MOMM*%
G71*
G04*
G04 #@! TF.SameCoordinates,0F374588-2137-43C4-A123-4C8396255DE2*
G04*
G04*
G04 #@! TF.FilePolarity,Positive*
G04*
G01*
G75*
%ADD20C,0.1270*%
%ADD21C,0.1693*%
D20*
X678230Y254330D02*
X680770Y256870D01*
X683310D01*
X680770Y259410D01*
X683310Y261950D01*
X680770D01*
X678230Y264490D01*
X675690Y261950D01*
X673150D01*
X675690Y259410D01*
X673150Y256870D01*
X675690D01*
X678230Y254330D01*
Y324330D02*
X680770Y326870D01*
X683310D01*
X680770Y329410D01*
X683310Y331950D01*
X680770D01*
X678230Y334490D01*
X675690Y331950D01*
X673150D01*
X675690Y329410D01*
X673150Y326870D01*
X675690D01*
X678230Y324330D01*
X722230Y337330D02*
X724770Y339870D01*
X727310D01*
X724770Y342410D01*
X727310Y344950D01*
X724770D01*
X722230Y347490D01*
X719690Y344950D01*
X717150D01*
X719690Y342410D01*
X717150Y339870D01*
X719690D01*
X722230Y337330D01*
X678230Y284330D02*
X680770Y286870D01*
X683310D01*
X680770Y289410D01*
X683310Y291950D01*
X680770D01*
X678230Y294490D01*
X675690Y291950D01*
X673150D01*
X675690Y289410D01*
X673150Y286870D01*
X675690D01*
X678230Y284330D01*
X700230Y236330D02*
X695150Y246490D01*
X705310D01*
X700230Y236330D01*
Y306330D02*
X695150Y316490D01*
X705310D01*
X700230Y306330D01*
X687920Y366920D02*
Y377080D01*
X698080D01*
Y366920D01*
X687920D01*
X576920Y456920D02*
Y467080D01*
X587080D01*
Y456920D01*
X576920D01*
D21*
X820027Y1171530D02*
G03*
X820027Y1171530I-5080J0D01*
G01*
X580025D02*
G03*
X580025Y1171530I-5080J0D01*
G01*
X580027Y301822D02*
G03*
X580027Y301822I-5080J0D01*
G01*
X820027D02*
G03*
X820027Y301822I-5080J0D01*
G01*
X400027Y560000D02*
G03*
X400027Y560000I-5080J0D01*
G01*
X375027Y700000D02*
G03*
X375027Y700000I-5080J0D01*
G01*
X399980Y889755D02*
G03*
X399980Y889755I-5080J0D01*
G01*
X1000027D02*
G03*
X1000027Y889755I-5080J0D01*
G01*
X1025080Y700000D02*
G03*
X1025080Y700000I-5080J0D01*
G01*
X1000080Y560000D02*
G03*
X1000080Y560000I-5080J0D01*
G01*
M02*
